<svg xmlns="http://www.w3.org/2000/svg" width="900" height="372" viewBox="0 0 900 372">
<defs>
<linearGradient id="shellEdge" x1="0" y1="0" x2="1" y2="0.9">
<stop offset="0" stop-color="#58a6ff" stop-opacity="0.85"/>
<stop offset="0.3" stop-color="#58a6ff" stop-opacity="0.12"/>
<stop offset="0.65" stop-color="#d0d7de" stop-opacity="1"/>
</linearGradient>
</defs>
<rect x="0.5" y="0.5" width="899" height="371" rx="12" fill="#ffffff" stroke="url(#shellEdge)"/>
<text x="24" y="30" font-size="18" font-weight="700" fill="#1f2328" font-family="-apple-system,BlinkMacSystemFont,'Segoe UI',Helvetica,Arial,sans-serif">GitHub Activity</text>
<text x="24" y="48" font-size="12.5" fill="#59636e" font-family="-apple-system,BlinkMacSystemFont,'Segoe UI',Helvetica,Arial,sans-serif">Public contributions · trailing 30 days · updated Sep 27, 2026</text>
<g transform="translate(0,56)"><g transform="translate(24.0,10.0)"><rect width="277.3" height="62" rx="8" fill="#f6f8fa" stroke="#d0d7de"/><text x="138.7" y="30" font-size="20" font-weight="700" fill="#58a6ff" text-anchor="middle" font-family="-apple-system,BlinkMacSystemFont,'Segoe UI',Helvetica,Arial,sans-serif">1,223</text><text x="138.7" y="48" font-size="10.5" fill="#59636e" text-anchor="middle" font-family="-apple-system,BlinkMacSystemFont,'Segoe UI',Helvetica,Arial,sans-serif">Commits</text></g>
<g transform="translate(311.3,10.0)"><rect width="277.3" height="62" rx="8" fill="#f6f8fa" stroke="#d0d7de"/><text x="138.7" y="30" font-size="20" font-weight="700" fill="#a371f7" text-anchor="middle" font-family="-apple-system,BlinkMacSystemFont,'Segoe UI',Helvetica,Arial,sans-serif">156</text><text x="138.7" y="48" font-size="10.5" fill="#59636e" text-anchor="middle" font-family="-apple-system,BlinkMacSystemFont,'Segoe UI',Helvetica,Arial,sans-serif">Pull Requests</text></g>
<g transform="translate(598.7,10.0)"><rect width="277.3" height="62" rx="8" fill="#f6f8fa" stroke="#d0d7de"/><text x="138.7" y="30" font-size="20" font-weight="700" fill="#3fb950" text-anchor="middle" font-family="-apple-system,BlinkMacSystemFont,'Segoe UI',Helvetica,Arial,sans-serif">34</text><text x="138.7" y="48" font-size="10.5" fill="#59636e" text-anchor="middle" font-family="-apple-system,BlinkMacSystemFont,'Segoe UI',Helvetica,Arial,sans-serif">Repos Contributed</text></g>
<g transform="translate(24.0,82.0)"><rect width="277.3" height="62" rx="8" fill="#f6f8fa" stroke="#d0d7de"/><text x="138.7" y="30" font-size="20" font-weight="700" fill="#f78166" text-anchor="middle" font-family="-apple-system,BlinkMacSystemFont,'Segoe UI',Helvetica,Arial,sans-serif">505</text><text x="138.7" y="48" font-size="10.5" fill="#59636e" text-anchor="middle" font-family="-apple-system,BlinkMacSystemFont,'Segoe UI',Helvetica,Arial,sans-serif">Pace+ (30d vs year)</text></g>
<g transform="translate(311.3,82.0)"><rect width="277.3" height="62" rx="8" fill="#f6f8fa" stroke="#d0d7de"/><text x="138.7" y="30" font-size="20" font-weight="700" fill="#9a6700" text-anchor="middle" font-family="-apple-system,BlinkMacSystemFont,'Segoe UI',Helvetica,Arial,sans-serif">45</text><text x="138.7" y="48" font-size="10.5" fill="#59636e" text-anchor="middle" font-family="-apple-system,BlinkMacSystemFont,'Segoe UI',Helvetica,Arial,sans-serif">Hitting Streak (days)</text></g>
<g transform="translate(598.7,82.0)"><rect width="277.3" height="62" rx="8" fill="#f6f8fa" stroke="#d0d7de"/><text x="138.7" y="30" font-size="20" font-weight="700" fill="#f778ba" text-anchor="middle" font-family="-apple-system,BlinkMacSystemFont,'Segoe UI',Helvetica,Arial,sans-serif">45</text><text x="138.7" y="48" font-size="10.5" fill="#59636e" text-anchor="middle" font-family="-apple-system,BlinkMacSystemFont,'Segoe UI',Helvetica,Arial,sans-serif">Career Best (days)</text></g>
<text x="24.0" y="172.0" font-size="13" font-weight="700" fill="#1f2328" font-family="-apple-system,BlinkMacSystemFont,'Segoe UI',Helvetica,Arial,sans-serif">Last 30 days</text>
<text x="876.0" y="172.0" font-size="11" fill="#59636e" text-anchor="end" font-family="-apple-system,BlinkMacSystemFont,'Segoe UI',Helvetica,Arial,sans-serif">1,286 contributions · 42.9/day</text>
<line x1="54.0" y1="186.0" x2="876.0" y2="186.0" stroke="#d0d7de" stroke-width="1" stroke-dasharray="3 4" opacity="0.8"/><text x="48.0" y="189.5" font-size="9" fill="#59636e" text-anchor="end" font-family="-apple-system,BlinkMacSystemFont,'Segoe UI',Helvetica,Arial,sans-serif">156</text>
<line x1="54.0" y1="234.0" x2="876.0" y2="234.0" stroke="#d0d7de" stroke-width="1" stroke-dasharray="3 4" opacity="0.8"/><text x="48.0" y="237.5" font-size="9" fill="#59636e" text-anchor="end" font-family="-apple-system,BlinkMacSystemFont,'Segoe UI',Helvetica,Arial,sans-serif">78</text>
<line x1="54.0" y1="282.0" x2="876.0" y2="282.0" stroke="#d0d7de" stroke-width="1" stroke-dasharray="3 4" opacity="0.8"/><text x="48.0" y="285.5" font-size="9" fill="#59636e" text-anchor="end" font-family="-apple-system,BlinkMacSystemFont,'Segoe UI',Helvetica,Arial,sans-serif">0</text>
<rect x="56.5" y="278.9" width="22.4" height="3.1" rx="3" fill="#58a6ff" opacity="0.37"/>
<rect x="83.9" y="234.6" width="22.4" height="47.4" rx="3" fill="#58a6ff" opacity="0.67"/>
<rect x="111.3" y="267.2" width="22.4" height="14.8" rx="3" fill="#58a6ff" opacity="0.45"/>
<rect x="138.7" y="262.3" width="22.4" height="19.7" rx="3" fill="#58a6ff" opacity="0.48"/>
<rect x="166.1" y="242.0" width="22.4" height="40.0" rx="3" fill="#58a6ff" opacity="0.62"/>
<rect x="193.5" y="216.2" width="22.4" height="65.8" rx="3" fill="#58a6ff" opacity="0.80"/>
<rect x="220.9" y="269.7" width="22.4" height="12.3" rx="3" fill="#58a6ff" opacity="0.43"/>
<rect x="248.3" y="255.5" width="22.4" height="26.5" rx="3" fill="#58a6ff" opacity="0.53"/>
<rect x="275.7" y="242.6" width="22.4" height="39.4" rx="3" fill="#58a6ff" opacity="0.62"/>
<rect x="303.1" y="260.5" width="22.4" height="21.5" rx="3" fill="#58a6ff" opacity="0.50"/>
<rect x="330.5" y="237.7" width="22.4" height="44.3" rx="3" fill="#58a6ff" opacity="0.65"/>
<rect x="357.9" y="275.2" width="22.4" height="6.8" rx="3" fill="#58a6ff" opacity="0.40"/>
<rect x="385.3" y="278.3" width="22.4" height="3.7" rx="3" fill="#58a6ff" opacity="0.38"/>
<rect x="412.7" y="278.9" width="22.4" height="3.1" rx="3" fill="#58a6ff" opacity="0.37"/>
<rect x="440.1" y="278.3" width="22.4" height="3.7" rx="3" fill="#58a6ff" opacity="0.38"/>
<rect x="467.5" y="234.0" width="22.4" height="48.0" rx="3" fill="#58a6ff" opacity="0.68"/>
<rect x="494.9" y="256.8" width="22.4" height="25.2" rx="3" fill="#58a6ff" opacity="0.52"/>
<rect x="522.3" y="224.2" width="22.4" height="57.8" rx="3" fill="#58a6ff" opacity="0.74"/>
<rect x="549.7" y="275.8" width="22.4" height="6.2" rx="3" fill="#58a6ff" opacity="0.39"/>
<rect x="577.1" y="258.0" width="22.4" height="24.0" rx="3" fill="#58a6ff" opacity="0.51"/>
<rect x="604.5" y="247.5" width="22.4" height="34.5" rx="3" fill="#58a6ff" opacity="0.58"/>
<rect x="631.9" y="244.5" width="22.4" height="37.5" rx="3" fill="#58a6ff" opacity="0.60"/>
<rect x="659.3" y="264.8" width="22.4" height="17.2" rx="3" fill="#58a6ff" opacity="0.47"/>
<rect x="686.7" y="186.0" width="22.4" height="96.0" rx="3" fill="#58a6ff" opacity="1.00"/>
<rect x="714.1" y="269.1" width="22.4" height="12.9" rx="3" fill="#58a6ff" opacity="0.44"/>
<rect x="741.5" y="273.4" width="22.4" height="8.6" rx="3" fill="#58a6ff" opacity="0.41"/>
<rect x="768.9" y="260.5" width="22.4" height="21.5" rx="3" fill="#58a6ff" opacity="0.50"/>
<rect x="796.3" y="250.0" width="22.4" height="32.0" rx="3" fill="#58a6ff" opacity="0.57"/>
<rect x="823.7" y="267.2" width="22.4" height="14.8" rx="3" fill="#58a6ff" opacity="0.45"/>
<rect x="851.1" y="278.9" width="22.4" height="3.1" rx="3" fill="#58a6ff" opacity="0.37"/>
<polyline points="67.7,278.9 95.1,256.8 122.5,260.3 149.9,260.8 177.3,257.0 204.7,250.2 232.1,253.0 259.5,249.6 286.9,250.8 314.3,249.8 341.7,246.3 369.1,251.1 396.5,259.9 423.9,261.3 451.3,264.5 478.7,263.3 506.1,262.7 533.5,260.8 560.9,260.9 588.3,258.0 615.7,253.5 643.1,248.7 670.5,253.1 697.9,243.0 725.3,249.4 752.7,249.0 780.1,249.4 807.5,249.7 834.9,253.0 862.3,255.0" fill="none" stroke="#9a6700" stroke-width="2" stroke-linejoin="round" stroke-linecap="round"/>
<line x1="54.0" y1="282.0" x2="876.0" y2="282.0" stroke="#d0d7de" stroke-width="1"/>
<text x="67.7" y="296.0" font-size="9" fill="#59636e" text-anchor="middle" font-family="-apple-system,BlinkMacSystemFont,'Segoe UI',Helvetica,Arial,sans-serif">Aug 29</text>
<text x="451.3" y="296.0" font-size="9" fill="#59636e" text-anchor="middle" font-family="-apple-system,BlinkMacSystemFont,'Segoe UI',Helvetica,Arial,sans-serif">Sep 12</text>
<text x="862.3" y="296.0" font-size="9" fill="#59636e" text-anchor="middle" font-family="-apple-system,BlinkMacSystemFont,'Segoe UI',Helvetica,Arial,sans-serif">Sep 27</text>
<text x="876.0" y="308.0" font-size="9" fill="#59636e" text-anchor="end" font-family="-apple-system,BlinkMacSystemFont,'Segoe UI',Helvetica,Arial,sans-serif">— 7-day avg</text></g>
</svg>