<svg xmlns="http://www.w3.org/2000/svg" width="900" height="372" viewBox="0 0 900 372">
<defs>
<linearGradient id="shellEdge" x1="0" y1="0" x2="1" y2="0.9">
<stop offset="0" stop-color="#58a6ff" stop-opacity="0.85"/>
<stop offset="0.3" stop-color="#58a6ff" stop-opacity="0.12"/>
<stop offset="0.65" stop-color="#d0d7de" stop-opacity="1"/>
</linearGradient>
</defs>
<rect x="0.5" y="0.5" width="899" height="371" rx="12" fill="#ffffff" stroke="url(#shellEdge)"/>
<text x="24" y="30" font-size="18" font-weight="700" fill="#1f2328" font-family="-apple-system,BlinkMacSystemFont,'Segoe UI',Helvetica,Arial,sans-serif">GitHub Activity</text>
<text x="24" y="48" font-size="12.5" fill="#59636e" font-family="-apple-system,BlinkMacSystemFont,'Segoe UI',Helvetica,Arial,sans-serif">Public contributions · trailing 30 days · updated Sep 26, 2026</text>
<g transform="translate(0,56)"><g transform="translate(24.0,10.0)"><rect width="277.3" height="62" rx="8" fill="#f6f8fa" stroke="#d0d7de"/><text x="138.7" y="30" font-size="20" font-weight="700" fill="#58a6ff" text-anchor="middle" font-family="-apple-system,BlinkMacSystemFont,'Segoe UI',Helvetica,Arial,sans-serif">1,223</text><text x="138.7" y="48" font-size="10.5" fill="#59636e" text-anchor="middle" font-family="-apple-system,BlinkMacSystemFont,'Segoe UI',Helvetica,Arial,sans-serif">Commits</text></g>
<g transform="translate(311.3,10.0)"><rect width="277.3" height="62" rx="8" fill="#f6f8fa" stroke="#d0d7de"/><text x="138.7" y="30" font-size="20" font-weight="700" fill="#a371f7" text-anchor="middle" font-family="-apple-system,BlinkMacSystemFont,'Segoe UI',Helvetica,Arial,sans-serif">155</text><text x="138.7" y="48" font-size="10.5" fill="#59636e" text-anchor="middle" font-family="-apple-system,BlinkMacSystemFont,'Segoe UI',Helvetica,Arial,sans-serif">Pull Requests</text></g>
<g transform="translate(598.7,10.0)"><rect width="277.3" height="62" rx="8" fill="#f6f8fa" stroke="#d0d7de"/><text x="138.7" y="30" font-size="20" font-weight="700" fill="#3fb950" text-anchor="middle" font-family="-apple-system,BlinkMacSystemFont,'Segoe UI',Helvetica,Arial,sans-serif">34</text><text x="138.7" y="48" font-size="10.5" fill="#59636e" text-anchor="middle" font-family="-apple-system,BlinkMacSystemFont,'Segoe UI',Helvetica,Arial,sans-serif">Repos Contributed</text></g>
<g transform="translate(24.0,82.0)"><rect width="277.3" height="62" rx="8" fill="#f6f8fa" stroke="#d0d7de"/><text x="138.7" y="30" font-size="20" font-weight="700" fill="#f78166" text-anchor="middle" font-family="-apple-system,BlinkMacSystemFont,'Segoe UI',Helvetica,Arial,sans-serif">594</text><text x="138.7" y="48" font-size="10.5" fill="#59636e" text-anchor="middle" font-family="-apple-system,BlinkMacSystemFont,'Segoe UI',Helvetica,Arial,sans-serif">Pace+ (30d vs year)</text></g>
<g transform="translate(311.3,82.0)"><rect width="277.3" height="62" rx="8" fill="#f6f8fa" stroke="#d0d7de"/><text x="138.7" y="30" font-size="20" font-weight="700" fill="#9a6700" text-anchor="middle" font-family="-apple-system,BlinkMacSystemFont,'Segoe UI',Helvetica,Arial,sans-serif">44</text><text x="138.7" y="48" font-size="10.5" fill="#59636e" text-anchor="middle" font-family="-apple-system,BlinkMacSystemFont,'Segoe UI',Helvetica,Arial,sans-serif">Hitting Streak (days)</text></g>
<g transform="translate(598.7,82.0)"><rect width="277.3" height="62" rx="8" fill="#f6f8fa" stroke="#d0d7de"/><text x="138.7" y="30" font-size="20" font-weight="700" fill="#f778ba" text-anchor="middle" font-family="-apple-system,BlinkMacSystemFont,'Segoe UI',Helvetica,Arial,sans-serif">45</text><text x="138.7" y="48" font-size="10.5" fill="#59636e" text-anchor="middle" font-family="-apple-system,BlinkMacSystemFont,'Segoe UI',Helvetica,Arial,sans-serif">Career Best (days)</text></g>
<text x="24.0" y="172.0" font-size="13" font-weight="700" fill="#1f2328" font-family="-apple-system,BlinkMacSystemFont,'Segoe UI',Helvetica,Arial,sans-serif">Last 30 days</text>
<text x="876.0" y="172.0" font-size="11" fill="#59636e" text-anchor="end" font-family="-apple-system,BlinkMacSystemFont,'Segoe UI',Helvetica,Arial,sans-serif">1,519 contributions · 50.6/day</text>
<line x1="54.0" y1="186.0" x2="876.0" y2="186.0" stroke="#d0d7de" stroke-width="1" stroke-dasharray="3 4" opacity="0.8"/><text x="48.0" y="189.5" font-size="9" fill="#59636e" text-anchor="end" font-family="-apple-system,BlinkMacSystemFont,'Segoe UI',Helvetica,Arial,sans-serif">238</text>
<line x1="54.0" y1="234.0" x2="876.0" y2="234.0" stroke="#d0d7de" stroke-width="1" stroke-dasharray="3 4" opacity="0.8"/><text x="48.0" y="237.5" font-size="9" fill="#59636e" text-anchor="end" font-family="-apple-system,BlinkMacSystemFont,'Segoe UI',Helvetica,Arial,sans-serif">119</text>
<line x1="54.0" y1="282.0" x2="876.0" y2="282.0" stroke="#d0d7de" stroke-width="1" stroke-dasharray="3 4" opacity="0.8"/><text x="48.0" y="285.5" font-size="9" fill="#59636e" text-anchor="end" font-family="-apple-system,BlinkMacSystemFont,'Segoe UI',Helvetica,Arial,sans-serif">0</text>
<rect x="56.5" y="186.0" width="22.4" height="96.0" rx="3" fill="#58a6ff" opacity="1.00"/>
<rect x="83.9" y="280.0" width="22.4" height="2.0" rx="3" fill="#58a6ff" opacity="0.36"/>
<rect x="111.3" y="250.9" width="22.4" height="31.1" rx="3" fill="#58a6ff" opacity="0.56"/>
<rect x="138.7" y="272.3" width="22.4" height="9.7" rx="3" fill="#58a6ff" opacity="0.42"/>
<rect x="166.1" y="269.1" width="22.4" height="12.9" rx="3" fill="#58a6ff" opacity="0.44"/>
<rect x="193.5" y="255.8" width="22.4" height="26.2" rx="3" fill="#58a6ff" opacity="0.53"/>
<rect x="220.9" y="238.8" width="22.4" height="43.2" rx="3" fill="#58a6ff" opacity="0.64"/>
<rect x="248.3" y="273.9" width="22.4" height="8.1" rx="3" fill="#58a6ff" opacity="0.40"/>
<rect x="275.7" y="264.7" width="22.4" height="17.3" rx="3" fill="#58a6ff" opacity="0.47"/>
<rect x="303.1" y="256.2" width="22.4" height="25.8" rx="3" fill="#58a6ff" opacity="0.52"/>
<rect x="330.5" y="267.9" width="22.4" height="14.1" rx="3" fill="#58a6ff" opacity="0.45"/>
<rect x="357.9" y="253.0" width="22.4" height="29.0" rx="3" fill="#58a6ff" opacity="0.55"/>
<rect x="385.3" y="277.6" width="22.4" height="4.4" rx="3" fill="#58a6ff" opacity="0.38"/>
<rect x="412.7" y="279.6" width="22.4" height="2.4" rx="3" fill="#58a6ff" opacity="0.37"/>
<rect x="440.1" y="280.0" width="22.4" height="2.0" rx="3" fill="#58a6ff" opacity="0.36"/>
<rect x="467.5" y="279.6" width="22.4" height="2.4" rx="3" fill="#58a6ff" opacity="0.37"/>
<rect x="494.9" y="250.5" width="22.4" height="31.5" rx="3" fill="#58a6ff" opacity="0.56"/>
<rect x="522.3" y="265.5" width="22.4" height="16.5" rx="3" fill="#58a6ff" opacity="0.46"/>
<rect x="549.7" y="244.1" width="22.4" height="37.9" rx="3" fill="#58a6ff" opacity="0.61"/>
<rect x="577.1" y="278.0" width="22.4" height="4.0" rx="3" fill="#58a6ff" opacity="0.38"/>
<rect x="604.5" y="266.3" width="22.4" height="15.7" rx="3" fill="#58a6ff" opacity="0.46"/>
<rect x="631.9" y="259.4" width="22.4" height="22.6" rx="3" fill="#58a6ff" opacity="0.50"/>
<rect x="659.3" y="257.4" width="22.4" height="24.6" rx="3" fill="#58a6ff" opacity="0.52"/>
<rect x="686.7" y="270.7" width="22.4" height="11.3" rx="3" fill="#58a6ff" opacity="0.43"/>
<rect x="714.1" y="219.1" width="22.4" height="62.9" rx="3" fill="#58a6ff" opacity="0.78"/>
<rect x="741.5" y="273.5" width="22.4" height="8.5" rx="3" fill="#58a6ff" opacity="0.41"/>
<rect x="768.9" y="276.4" width="22.4" height="5.6" rx="3" fill="#58a6ff" opacity="0.39"/>
<rect x="796.3" y="267.9" width="22.4" height="14.1" rx="3" fill="#58a6ff" opacity="0.45"/>
<rect x="823.7" y="261.0" width="22.4" height="21.0" rx="3" fill="#58a6ff" opacity="0.49"/>
<rect x="851.1" y="272.3" width="22.4" height="9.7" rx="3" fill="#58a6ff" opacity="0.42"/>
<polyline points="67.7,186.0 95.1,233.0 122.5,239.0 149.9,247.3 177.3,251.7 204.7,252.4 232.1,250.4 259.5,263.0 286.9,260.8 314.3,261.5 341.7,260.9 369.1,258.6 396.5,261.7 423.9,267.5 451.3,268.4 478.7,270.5 506.1,269.7 533.5,269.4 560.9,268.1 588.3,268.2 615.7,266.3 643.1,263.3 670.5,260.2 697.9,263.0 725.3,256.4 752.7,260.6 780.1,260.4 807.5,260.6 834.9,260.9 862.3,263.0" fill="none" stroke="#9a6700" stroke-width="2" stroke-linejoin="round" stroke-linecap="round"/>
<line x1="54.0" y1="282.0" x2="876.0" y2="282.0" stroke="#d0d7de" stroke-width="1"/>
<text x="67.7" y="296.0" font-size="9" fill="#59636e" text-anchor="middle" font-family="-apple-system,BlinkMacSystemFont,'Segoe UI',Helvetica,Arial,sans-serif">Aug 28</text>
<text x="451.3" y="296.0" font-size="9" fill="#59636e" text-anchor="middle" font-family="-apple-system,BlinkMacSystemFont,'Segoe UI',Helvetica,Arial,sans-serif">Sep 11</text>
<text x="862.3" y="296.0" font-size="9" fill="#59636e" text-anchor="middle" font-family="-apple-system,BlinkMacSystemFont,'Segoe UI',Helvetica,Arial,sans-serif">Sep 26</text>
<text x="876.0" y="308.0" font-size="9" fill="#59636e" text-anchor="end" font-family="-apple-system,BlinkMacSystemFont,'Segoe UI',Helvetica,Arial,sans-serif">— 7-day avg</text></g>
</svg>