<svg xmlns="http://www.w3.org/2000/svg" width="900" height="372" viewBox="0 0 900 372">
<defs>
<linearGradient id="shellEdge" x1="0" y1="0" x2="1" y2="0.9">
<stop offset="0" stop-color="#58a6ff" stop-opacity="0.85"/>
<stop offset="0.3" stop-color="#58a6ff" stop-opacity="0.12"/>
<stop offset="0.65" stop-color="#d0d7de" stop-opacity="1"/>
</linearGradient>
</defs>
<rect x="0.5" y="0.5" width="899" height="371" rx="12" fill="#ffffff" stroke="url(#shellEdge)"/>
<text x="24" y="30" font-size="18" font-weight="700" fill="#1f2328" font-family="-apple-system,BlinkMacSystemFont,'Segoe UI',Helvetica,Arial,sans-serif">GitHub Activity</text>
<text x="24" y="48" font-size="12.5" fill="#59636e" font-family="-apple-system,BlinkMacSystemFont,'Segoe UI',Helvetica,Arial,sans-serif">Public contributions · trailing 30 days · updated Oct 8, 2026</text>
<g transform="translate(0,56)"><g transform="translate(24.0,10.0)"><rect width="277.3" height="62" rx="8" fill="#f6f8fa" stroke="#d0d7de"/><text x="138.7" y="30" font-size="20" font-weight="700" fill="#58a6ff" text-anchor="middle" font-family="-apple-system,BlinkMacSystemFont,'Segoe UI',Helvetica,Arial,sans-serif">1,309</text><text x="138.7" y="48" font-size="10.5" fill="#59636e" text-anchor="middle" font-family="-apple-system,BlinkMacSystemFont,'Segoe UI',Helvetica,Arial,sans-serif">Commits</text></g>
<g transform="translate(311.3,10.0)"><rect width="277.3" height="62" rx="8" fill="#f6f8fa" stroke="#d0d7de"/><text x="138.7" y="30" font-size="20" font-weight="700" fill="#a371f7" text-anchor="middle" font-family="-apple-system,BlinkMacSystemFont,'Segoe UI',Helvetica,Arial,sans-serif">239</text><text x="138.7" y="48" font-size="10.5" fill="#59636e" text-anchor="middle" font-family="-apple-system,BlinkMacSystemFont,'Segoe UI',Helvetica,Arial,sans-serif">Pull Requests</text></g>
<g transform="translate(598.7,10.0)"><rect width="277.3" height="62" rx="8" fill="#f6f8fa" stroke="#d0d7de"/><text x="138.7" y="30" font-size="20" font-weight="700" fill="#3fb950" text-anchor="middle" font-family="-apple-system,BlinkMacSystemFont,'Segoe UI',Helvetica,Arial,sans-serif">37</text><text x="138.7" y="48" font-size="10.5" fill="#59636e" text-anchor="middle" font-family="-apple-system,BlinkMacSystemFont,'Segoe UI',Helvetica,Arial,sans-serif">Repos Contributed</text></g>
<g transform="translate(24.0,82.0)"><rect width="277.3" height="62" rx="8" fill="#f6f8fa" stroke="#d0d7de"/><text x="138.7" y="30" font-size="20" font-weight="700" fill="#f78166" text-anchor="middle" font-family="-apple-system,BlinkMacSystemFont,'Segoe UI',Helvetica,Arial,sans-serif">440</text><text x="138.7" y="48" font-size="10.5" fill="#59636e" text-anchor="middle" font-family="-apple-system,BlinkMacSystemFont,'Segoe UI',Helvetica,Arial,sans-serif">Pace+ (30d vs year)</text></g>
<g transform="translate(311.3,82.0)"><rect width="277.3" height="62" rx="8" fill="#f6f8fa" stroke="#d0d7de"/><text x="138.7" y="30" font-size="20" font-weight="700" fill="#9a6700" text-anchor="middle" font-family="-apple-system,BlinkMacSystemFont,'Segoe UI',Helvetica,Arial,sans-serif">56</text><text x="138.7" y="48" font-size="10.5" fill="#59636e" text-anchor="middle" font-family="-apple-system,BlinkMacSystemFont,'Segoe UI',Helvetica,Arial,sans-serif">Hitting Streak (days)</text></g>
<g transform="translate(598.7,82.0)"><rect width="277.3" height="62" rx="8" fill="#f6f8fa" stroke="#d0d7de"/><text x="138.7" y="30" font-size="20" font-weight="700" fill="#f778ba" text-anchor="middle" font-family="-apple-system,BlinkMacSystemFont,'Segoe UI',Helvetica,Arial,sans-serif">56</text><text x="138.7" y="48" font-size="10.5" fill="#59636e" text-anchor="middle" font-family="-apple-system,BlinkMacSystemFont,'Segoe UI',Helvetica,Arial,sans-serif">Career Best (days)</text></g>
<text x="24.0" y="172.0" font-size="13" font-weight="700" fill="#1f2328" font-family="-apple-system,BlinkMacSystemFont,'Segoe UI',Helvetica,Arial,sans-serif">Last 30 days</text>
<text x="876.0" y="172.0" font-size="11" fill="#59636e" text-anchor="end" font-family="-apple-system,BlinkMacSystemFont,'Segoe UI',Helvetica,Arial,sans-serif">1,381 contributions · 46.0/day</text>
<line x1="54.0" y1="186.0" x2="876.0" y2="186.0" stroke="#d0d7de" stroke-width="1" stroke-dasharray="3 4" opacity="0.8"/><text x="48.0" y="189.5" font-size="9" fill="#59636e" text-anchor="end" font-family="-apple-system,BlinkMacSystemFont,'Segoe UI',Helvetica,Arial,sans-serif">163</text>
<line x1="54.0" y1="234.0" x2="876.0" y2="234.0" stroke="#d0d7de" stroke-width="1" stroke-dasharray="3 4" opacity="0.8"/><text x="48.0" y="237.5" font-size="9" fill="#59636e" text-anchor="end" font-family="-apple-system,BlinkMacSystemFont,'Segoe UI',Helvetica,Arial,sans-serif">81</text>
<line x1="54.0" y1="282.0" x2="876.0" y2="282.0" stroke="#d0d7de" stroke-width="1" stroke-dasharray="3 4" opacity="0.8"/><text x="48.0" y="285.5" font-size="9" fill="#59636e" text-anchor="end" font-family="-apple-system,BlinkMacSystemFont,'Segoe UI',Helvetica,Arial,sans-serif">0</text>
<rect x="56.5" y="275.5" width="22.4" height="6.5" rx="3" fill="#58a6ff" opacity="0.39"/>
<rect x="83.9" y="271.4" width="22.4" height="10.6" rx="3" fill="#58a6ff" opacity="0.42"/>
<rect x="111.3" y="277.3" width="22.4" height="4.7" rx="3" fill="#58a6ff" opacity="0.38"/>
<rect x="138.7" y="278.5" width="22.4" height="3.5" rx="3" fill="#58a6ff" opacity="0.37"/>
<rect x="166.1" y="236.1" width="22.4" height="45.9" rx="3" fill="#58a6ff" opacity="0.66"/>
<rect x="193.5" y="257.3" width="22.4" height="24.7" rx="3" fill="#58a6ff" opacity="0.52"/>
<rect x="220.9" y="219.6" width="22.4" height="62.4" rx="3" fill="#58a6ff" opacity="0.77"/>
<rect x="248.3" y="274.9" width="22.4" height="7.1" rx="3" fill="#58a6ff" opacity="0.40"/>
<rect x="275.7" y="258.4" width="22.4" height="23.6" rx="3" fill="#58a6ff" opacity="0.51"/>
<rect x="303.1" y="249.0" width="22.4" height="33.0" rx="3" fill="#58a6ff" opacity="0.57"/>
<rect x="330.5" y="246.1" width="22.4" height="35.9" rx="3" fill="#58a6ff" opacity="0.59"/>
<rect x="357.9" y="265.5" width="22.4" height="16.5" rx="3" fill="#58a6ff" opacity="0.46"/>
<rect x="385.3" y="186.0" width="22.4" height="96.0" rx="3" fill="#58a6ff" opacity="1.00"/>
<rect x="412.7" y="266.7" width="22.4" height="15.3" rx="3" fill="#58a6ff" opacity="0.45"/>
<rect x="440.1" y="270.8" width="22.4" height="11.2" rx="3" fill="#58a6ff" opacity="0.43"/>
<rect x="467.5" y="254.3" width="22.4" height="27.7" rx="3" fill="#58a6ff" opacity="0.54"/>
<rect x="494.9" y="251.4" width="22.4" height="30.6" rx="3" fill="#58a6ff" opacity="0.56"/>
<rect x="522.3" y="267.3" width="22.4" height="14.7" rx="3" fill="#58a6ff" opacity="0.45"/>
<rect x="549.7" y="273.2" width="22.4" height="8.8" rx="3" fill="#58a6ff" opacity="0.41"/>
<rect x="577.1" y="244.3" width="22.4" height="37.7" rx="3" fill="#58a6ff" opacity="0.61"/>
<rect x="604.5" y="256.1" width="22.4" height="25.9" rx="3" fill="#58a6ff" opacity="0.53"/>
<rect x="631.9" y="235.5" width="22.4" height="46.5" rx="3" fill="#58a6ff" opacity="0.67"/>
<rect x="659.3" y="256.7" width="22.4" height="25.3" rx="3" fill="#58a6ff" opacity="0.52"/>
<rect x="686.7" y="255.5" width="22.4" height="26.5" rx="3" fill="#58a6ff" opacity="0.53"/>
<rect x="714.1" y="256.1" width="22.4" height="25.9" rx="3" fill="#58a6ff" opacity="0.53"/>
<rect x="741.5" y="270.2" width="22.4" height="11.8" rx="3" fill="#58a6ff" opacity="0.43"/>
<rect x="768.9" y="240.2" width="22.4" height="41.8" rx="3" fill="#58a6ff" opacity="0.63"/>
<rect x="796.3" y="232.5" width="22.4" height="49.5" rx="3" fill="#58a6ff" opacity="0.68"/>
<rect x="823.7" y="256.7" width="22.4" height="25.3" rx="3" fill="#58a6ff" opacity="0.52"/>
<rect x="851.1" y="263.7" width="22.4" height="18.3" rx="3" fill="#58a6ff" opacity="0.47"/>
<polyline points="67.7,275.5 95.1,273.5 122.5,274.7 149.9,275.7 177.3,267.7 204.7,266.0 232.1,259.4 259.5,259.3 286.9,257.4 314.3,253.4 341.7,248.8 369.1,253.0 396.5,242.8 423.9,249.5 451.3,248.9 478.7,248.3 506.1,248.7 533.5,251.7 560.9,252.8 588.3,261.1 615.7,259.6 643.1,254.6 670.5,254.9 697.9,255.5 725.3,253.9 752.7,253.5 780.1,252.9 807.5,249.5 834.9,252.6 862.3,253.6" fill="none" stroke="#9a6700" stroke-width="2" stroke-linejoin="round" stroke-linecap="round"/>
<line x1="54.0" y1="282.0" x2="876.0" y2="282.0" stroke="#d0d7de" stroke-width="1"/>
<text x="67.7" y="296.0" font-size="9" fill="#59636e" text-anchor="middle" font-family="-apple-system,BlinkMacSystemFont,'Segoe UI',Helvetica,Arial,sans-serif">Sep 9</text>
<text x="451.3" y="296.0" font-size="9" fill="#59636e" text-anchor="middle" font-family="-apple-system,BlinkMacSystemFont,'Segoe UI',Helvetica,Arial,sans-serif">Sep 23</text>
<text x="862.3" y="296.0" font-size="9" fill="#59636e" text-anchor="middle" font-family="-apple-system,BlinkMacSystemFont,'Segoe UI',Helvetica,Arial,sans-serif">Oct 8</text>
<text x="876.0" y="308.0" font-size="9" fill="#59636e" text-anchor="end" font-family="-apple-system,BlinkMacSystemFont,'Segoe UI',Helvetica,Arial,sans-serif">— 7-day avg</text></g>
</svg>